<!-- Generator: Adobe Illustrator 17.0.0, SVG Export Plug-In  -->
<svg version="1.1"
	 xmlns="http://www.w3.org/2000/svg" xmlns:xlink="http://www.w3.org/1999/xlink" xmlns:a="http://ns.adobe.com/AdobeSVGViewerExtensions/3.0/"
	 x="0px" y="0px" width="517.849px" height="83.514px" viewBox="0 0 517.849 83.514" enable-background="new 0 0 517.849 83.514"
	 xml:space="preserve">
<defs>
</defs>
<g>
	<path fill="#D61518" d="M39.188,0c24.674,0,39.189,18.422,39.189,42.092c0,22.999-14.515,41.422-39.189,41.422S0,65.091,0,42.092
		C0,18.422,14.514,0,39.188,0z"/>
	<path fill="#D61518" d="M39.188,68.775c15.743,0,21.66-13.397,21.66-26.684c0-13.956-5.917-27.354-21.66-27.354
		c-15.742,0-21.66,13.398-21.66,27.354C17.529,55.378,23.446,68.775,39.188,68.775z"/>
	<path fill="#D61518" d="M126.614,0c24.674,0,39.189,18.422,39.189,42.092c0,22.999-14.515,41.422-39.189,41.422
		S87.425,65.091,87.425,42.092C87.425,18.422,101.939,0,126.614,0z"/>
	<path fill="#D61518" d="M126.614,68.775c15.743,0,21.66-13.397,21.66-26.684c0-13.956-5.917-27.354-21.66-27.354
		c-15.742,0-21.66,13.398-21.66,27.354C104.954,55.378,110.872,68.775,126.614,68.775z"/>
	<path fill="#D61518" d="M214.039,0c24.674,0,39.189,18.422,39.189,42.092c0,22.999-14.515,41.422-39.189,41.422
		s-39.188-18.423-39.188-41.422C174.851,18.422,189.365,0,214.039,0z M214.039,68.775c15.743,0,21.66-13.397,21.66-26.684
		c0-13.956-5.917-27.354-21.66-27.354c-15.742,0-21.66,13.398-21.66,27.354C192.379,55.378,198.297,68.775,214.039,68.775z"/>
	<path fill="#D61518" d="M301.464,0c24.674,0,39.189,18.422,39.189,42.092c0,22.999-14.515,41.422-39.189,41.422
		s-39.188-18.423-39.188-41.422C262.276,18.422,276.79,0,301.464,0z M301.464,68.775c15.743,0,21.66-13.397,21.66-26.684
		c0-13.956-5.917-27.354-21.66-27.354c-15.742,0-21.66,13.398-21.66,27.354C279.805,55.378,285.722,68.775,301.464,68.775z"/>
	<path fill="#D61518" d="M353.162,1.898h35.951c19.873,0,27.577,12.616,27.577,25.567s-7.704,25.567-27.577,25.567h-18.422v28.582
		h-17.529V1.898z M370.691,39.412h13.621c8.15,0,15.408-1.786,15.408-11.946s-7.257-11.946-15.408-11.946h-13.621V39.412z"/>
	<path fill="#D61518" d="M440.14,55.154c0,10.606,8.262,14.738,17.64,14.738c6.141,0,15.519-1.787,15.519-9.938
		c0-8.597-11.946-10.048-23.669-13.174c-11.834-3.127-23.781-7.704-23.781-22.665C425.849,7.815,441.256,0,455.659,0
		c16.635,0,31.931,7.257,31.931,25.68h-16.97c-0.559-9.603-7.369-12.059-15.743-12.059c-5.583,0-12.058,2.345-12.058,9.044
		c0,6.141,3.796,6.922,23.781,12.058c5.806,1.451,23.669,5.136,23.669,23.223c0,14.626-11.5,25.568-33.16,25.568
		c-17.64,0-34.165-8.709-33.941-28.359H440.14z"/>
	<path fill="#D61518" d="M500.32,64.421h17.529v17.194H500.32V64.421z M517.291,23.335l-4.354,34.388h-7.927l-4.243-34.388V1.898
		h16.524V23.335z"/>
</g>
<g>
	<g>
		<g>
			<path fill="#FFFFFF" d="M45.18,23.63c-1.018-0.545-2.248-0.485-3.208,0.155L28.54,32.74h-5.092c-1.306,0-2.379,1.008-2.486,2.287
				h-0.719c-2.416,0-4.382,1.966-4.382,4.382v4.696c0,2.416,1.966,4.382,4.382,4.382h0.719c0.107,1.279,1.18,2.287,2.486,2.287
				h5.092l13.432,8.955c0.524,0.349,1.128,0.526,1.733,0.526c0.505,0,1.012-0.123,1.475-0.37c1.018-0.545,1.651-1.601,1.651-2.756
				V26.386C46.83,25.231,46.198,24.175,45.18,23.63z M20.951,46.007h-0.708c-1.049,0-1.902-0.853-1.902-1.902v-4.696
				c0-1.049,0.853-1.902,1.902-1.902h0.708V46.007z M27.676,48.294L27.676,48.294h-4.228c-0.009,0-0.017-0.008-0.017-0.017v-1.03
				V35.236c0-0.009,0.008-0.017,0.017-0.017h4.228V48.294z M44.351,57.128c0,0.349-0.238,0.514-0.341,0.569
				c-0.103,0.055-0.372,0.161-0.663-0.032L30.155,48.87V34.643l13.192-8.795c0.29-0.194,0.56-0.087,0.663-0.032
				c0.102,0.055,0.341,0.22,0.341,0.569V57.128z"/>
		</g>
	</g>
	<g>
		<g>
			<path fill="#FFFFFF" d="M59.349,41.757l3.403-3.403c0.436-0.436,0.436-1.142,0-1.578c-0.436-0.436-1.142-0.436-1.578,0
				l-3.403,3.403l-3.403-3.403c-0.436-0.436-1.142-0.436-1.578,0c-0.436,0.436-0.436,1.142,0,1.578l3.403,3.403l-3.403,3.403
				c-0.436,0.436-0.436,1.142,0,1.578c0.218,0.218,0.504,0.327,0.789,0.327s0.571-0.109,0.789-0.327l3.403-3.403l3.403,3.403
				c0.218,0.218,0.504,0.327,0.789,0.327s0.571-0.109,0.789-0.327c0.436-0.436,0.436-1.142,0-1.578L59.349,41.757z"/>
		</g>
	</g>
</g>
<circle cx="226.951" cy="41.756" r="10.077"/>
<circle cx="312.543" cy="41.756" r="10.077"/>
</svg>
